# xmcd
#
# Track frame offsets: 
#        150
#        22396
#        38511
#        52784
#        71900
#        91857
#        112988
#        127143
#        144507
#        157575
#        170831
#        189501
#        204456
#        223276
#        237564
#        255712
#        282253
#        308271
#
# Disc length: 4412 seconds
#
# Revision: 1
# Processed by: cddbd v1.5.1PL0 Copyright (c) Steve Scherf et al.
# Submitted via: ExactAudioCopy v0.95a5
#
DISCID=04113a12
DTITLE=Rosenfels - Live
DYEAR=2003
DGENRE=Pop
TTITLE0=Waiting For The Daylight
TTITLE1=Believe Me
TTITLE2=My Darling
TTITLE3=Taste Of Fear
TTITLE4=Evelyn
TTITLE5=More and More
TTITLE6=Sweet Summer
TTITLE7=Storm
TTITLE8=Elephant Waltz
TTITLE9=Today
TTITLE10=Awaken
TTITLE11=Prodigy
TTITLE12=Love Song
TTITLE13=The Last Good Bye
TTITLE14=Picture
TTITLE15=White Roses
TTITLE16=Religion
TTITLE17=True Romance
EXTD=YEAR: 2003
EXTT0=
EXTT1=
EXTT2=
EXTT3=
EXTT4=
EXTT5=
EXTT6=
EXTT7=
EXTT8=
EXTT9=
EXTT10=
EXTT11=
EXTT12=
EXTT13=
EXTT14=
EXTT15=
EXTT16=
EXTT17=
PLAYORDER=
